<?xml version="1.0" encoding="iso-8859-1"?>
<!-- Generator: Adobe Illustrator 17.1.0, SVG Export Plug-In . SVG Version: 6.00 Build 0)  -->
<!DOCTYPE svg PUBLIC "-//W3C//DTD SVG 1.1//EN" "http://www.w3.org/Graphics/SVG/1.1/DTD/svg11.dtd">
<svg version="1.1" id="Capa_1" xmlns="http://www.w3.org/2000/svg" xmlns:xlink="http://www.w3.org/1999/xlink" x="0px" y="0px"
	 viewBox="0 0 511.679 511.679" style="enable-background:new 0 0 511.679 511.679;" xml:space="preserve">
<g>
	<path d="M309.906,151.839H25.773C11.562,151.839,0,163.401,0,177.612v180.454c0,14.211,11.562,25.773,25.773,25.773h93.843v24
		h-7.938c-4.418,0-8,3.582-8,8s3.582,8,8,8h112.559c4.418,0,8-3.582,8-8s-3.582-8-8-8h-8.733v-24h94.401
		c14.211,0,25.773-11.562,25.773-25.773V177.612C335.679,163.401,324.117,151.839,309.906,151.839z M199.504,407.839h-63.888v-24
		h63.888V407.839z M319.679,358.066c0,5.389-4.384,9.773-9.773,9.773H25.773c-5.389,0-9.773-4.384-9.773-9.773V177.612
		c0-5.389,4.384-9.773,9.773-9.773h284.133c5.389,0,9.773,4.384,9.773,9.773V358.066z"/>
	<path d="M303.679,175.839h-272c-4.418,0-8,3.582-8,8v168c0,4.418,3.582,8,8,8h272c4.418,0,8-3.582,8-8v-168
		C311.679,179.421,308.097,175.839,303.679,175.839z M295.679,343.839h-256v-152h256V343.839z"/>
	<path d="M487.601,87.839H375.756c-13.276,0-24.078,10.801-24.078,24.078v303.922c0,4.418,3.582,8,8,8s8-3.582,8-8v-8h128v8
		c0,4.418,3.582,8,8,8s8-3.582,8-8V111.917C511.679,98.641,500.877,87.839,487.601,87.839z M367.679,391.839V111.917
		c0-4.454,3.624-8.078,8.078-8.078h111.845c4.454,0,8.078,3.624,8.078,8.078v279.922H367.679z"/>
	<path d="M479.679,119.839h-96c-4.418,0-8,3.582-8,8v24c0,4.418,3.582,8,8,8h96c4.418,0,8-3.582,8-8v-24
		C487.679,123.421,484.097,119.839,479.679,119.839z M471.679,143.839h-80v-8h80V143.839z"/>
	<path d="M479.679,167.839h-96c-4.418,0-8,3.582-8,8v24c0,4.418,3.582,8,8,8h96c4.418,0,8-3.582,8-8v-24
		C487.679,171.421,484.097,167.839,479.679,167.839z M471.679,191.839h-80v-8h80V191.839z"/>
	<path d="M447.679,287.839c-4.418,0-8,3.582-8,8c0,4.411-3.589,8-8,8s-8-3.589-8-8s3.589-8,8-8c4.418,0,8-3.582,8-8s-3.582-8-8-8
		c-13.234,0-24,10.766-24,24s10.766,24,24,24s24-10.766,24-24C455.679,291.421,452.097,287.839,447.679,287.839z"/>
	<path d="M431.679,327.839c-8.822,0-16,7.178-16,16s7.178,16,16,16s16-7.178,16-16S440.501,327.839,431.679,327.839z"/>
</g>
<g>
</g>
<g>
</g>
<g>
</g>
<g>
</g>
<g>
</g>
<g>
</g>
<g>
</g>
<g>
</g>
<g>
</g>
<g>
</g>
<g>
</g>
<g>
</g>
<g>
</g>
<g>
</g>
<g>
</g>
</svg>
